:SAMPLES-PER-SECOND 30
:FULLY-SPECIFIED
:DEGREES
94
root  24.7066663 39.12311163 42.42533286 -4.109819889 7.591690063 3.191960096
lowerback  8.951749802 -1.330420017 -5.768909931
upperback  1.616340041 -2.242899895 1.914369941
thorax  -3.034070015 -1.058349967 5.504010201
lowerneck  -17.21430016 -5.750599861 -15.63930035
upperneck  26.95199966 -6.51651001 10.13759995
head  12.71350002 -3.246140003 5.523079872
lclavicle  0 -5.34481991e-014 2.981770104e-014
lhumerus  -32.66559982 5.413720131 79.8742981
lradius  -2.41841623e-031 -2.572956854e-031 46.77339935
lwrist  0 -1.765562519e-031 6.691840172
lhand  -7.175566858e-031 -10.1960001 30.49279976
lfingers  90 7.125020027 -90
lthumb  94.13327502 14.29480478 73.68657911
rclavicle  0 -5.34481991e-014 2.981770104e-014
rhumerus  -39.2276001 -20.75300026 -70.51599884
rradius  3.312463305e-031 1.223286921e-031 20.26910019
rwrist  7.062250077e-031 -3.531125038e-031 14.68630028
rhand  3.720657923e-031 -18.36669922 11.43299961
rfingers  -90 -7.125020027 -90
rthumb  -86.05439533 -26.32808087 -81.16041407
rfemur  -23.32740021 -0.7354750037 14.74300003
rtibia  -0 0 18.76840019
rfoot  -0 -9.263339996 -9.504260063
rtoes  3.624831192 19.68201403 -100.6524931
lfemur  16.67760086 0.5312520266 -23.9428997
ltibia  -0 0 14.89340019
lfoot  -0 -15.38339996 -7.264100075
ltoes  -7.748911216 -18.49478353 -113.217504
95
root  24.66888878 39.08999886 42.77622193 -4.046649933 7.499129772 3.016350031
lowerback  9.556750298 -1.341609955 -5.679399967
upperback  1.116240025 -2.286580086 2.032310009
thorax  -3.887500048 -1.035930037 5.622139931
lowerneck  -16.89599991 -5.660639763 -15.68519974
upperneck  27.28499985 -6.411520004 10.02060032
head  12.76329994 -3.234509945 5.517970085
lclavicle  0 -5.34481991e-014 2.981770104e-014
lhumerus  -33.41849899 5.533889771 79.73819733
lradius  -2.415864311e-031 -2.575353115e-031 46.8302002
lwrist  -7.062250077e-031 -1.765562519e-031 6.724820137
lhand  -7.171459455e-031 -10.01189995 31.02879906
lfingers  90 7.125020027 -90
lthumb  94.331574 14.78232538 73.46564246
rclavicle  0 -5.34481991e-014 2.981770104e-014
rhumerus  -40.00930023 -20.50110054 -70.13420105
rradius  3.318490324e-031 1.206841335e-031 19.98489952
rwrist  7.062250077e-031 -3.531125038e-031 14.92059994
rhand  3.726172317e-031 -18.62039948 11.5593996
rfingers  -90 -7.125020027 -90
rthumb  -86.15581944 -26.46066303 -81.4243481
rfemur  -23.46689987 -0.869551003 15.16800022
rtibia  -0 0 19.92910004
rfoot  -0 -8.011580467 -9.233710289
rtoes  4.018990649 19.60825037 -101.8248749
lfemur  16.91889954 0.03253240138 -23.76399994
ltibia  -0 0 15.36979961
lfoot  9.151704988e-032 -15.28890038 -7.099989891
ltoes  -7.569753449 -18.56666365 -112.6537878
96
root  24.62977762 39.04133294 43.13355694 -3.9191401 7.557789803 3.220799923
lowerback  9.531760216 -1.356600046 -5.96559
upperback  1.154909968 -2.334719896 2.023819923
thorax  -3.815160036 -1.059470057 5.779650211
lowerneck  -17.11980057 -5.705170155 -15.71199989
upperneck  27.2548008 -6.440780163 10.0600996
head  12.80529976 -3.239239931 5.530920029
lclavicle  0 -5.34481991e-014 2.981770104e-014
lhumerus  -33.14170074 5.853519917 79.56089783
lradius  -2.416183388e-031 -2.575053761e-031 46.82310104
lwrist  -1.412450015e-030 -0 5.723549843
lhand  -7.169810914e-031 -9.937000275 31.1942997
lfingers  90 7.125020027 -90
lthumb  94.39778355 14.92989883 73.37917927
rclavicle  0 -5.34481991e-014 2.981770104e-014
rhumerus  -40.04240036 -20.23530006 -70.36859894
rradius  3.314076653e-031 1.218909337e-031 20.19339943
rwrist  7.062250077e-031 -0 14.58250046
rhand  -0 -18.94960022 11.70419979
rfingers  -90 -7.125020027 -90
rthumb  -86.29234991 -26.61365483 -81.76900334
rfemur  -23.66069984 -1.246899962 15.20849991
rtibia  -0 0 21.28019905
rfoot  -0 -7.369900227 -9.078920364
rtoes  3.614388823 19.68386065 -100.6214898
lfemur  17.21190071 -0.4607099891 -23.99510002
ltibia  -0 0 15.73029995
lfoot  -0 -15.09930038 -6.955039978
ltoes  -7.243033262 -18.69264709 -111.6310537
97
root  24.59155556 38.99933222 43.5257769 -3.920490026 7.508780003 3.640789986
lowerback  9.122119904 -1.346510053 -6.504950047
upperback  1.529770017 -2.345760107 1.953979969
thorax  -3.172899961 -1.094879985 5.985650063
lowerneck  -17.62409973 -5.734370232 -15.66069984
upperneck  27.11809921 -6.394659996 10.0284996
head  12.84399986 -3.201430082 5.508019924
lclavicle  0 -5.34481991e-014 2.981770104e-014
lhumerus  -32.45090103 6.295060158 79.37470245
lradius  -2.437350066e-031 -2.555028119e-031 46.35029984
lwrist  -1.412450015e-030 -0 5.322609901
lhand  -7.171693814e-031 -10.02250004 30.77359962
lfingers  90 7.125020027 -90
lthumb  94.25414076 14.53918786 73.49508123
rclavicle  0 -5.34481991e-014 2.981770104e-014
rhumerus  -39.72859955 -20.50300026 -70.4571991
rradius  3.313269625e-031 1.221101318e-031 20.23130035
rwrist  3.531125038e-031 -3.531125038e-031 14.73019981
rhand  -0 -19.10280037 12.0717001
rfingers  -90 -7.125020027 -90
rthumb  -86.3092248 -26.98192266 -81.90829058
rfemur  -23.66180038 -1.577520013 15.04850006
rtibia  -0 0 22.57710075
rfoot  -0 -7.088389874 -9.129699707
rtoes  3.047647477 19.77583655 -98.94278928
lfemur  17.61249924 -0.7306479812 -24.43880081
ltibia  -0 0 16.19050026
lfoot  9.137708844e-032 -14.96450043 -6.881859779
ltoes  -7.035842627 -18.76918243 -110.9858556
